<svg width="1024" height="1024" viewBox="0 0 1024 1024" fill="none" xmlns="http://www.w3.org/2000/svg">
<rect width="1024" height="1024" fill="black"/>
<path d="M773.816 412.334C755.827 355.908 720.459 306.613 672.768 271.496C625.077 236.38 567.505 217.24 508.282 216.813C458.211 216.528 409.009 229.892 365.963 255.47C322.917 281.048 287.655 317.872 263.965 361.985C220.423 369.78 180.505 391.27 150.023 423.325C119.541 455.38 100.086 496.328 94.4897 540.208C88.8937 584.087 97.4491 628.607 118.91 667.287C140.372 705.967 173.618 736.787 213.811 755.261L219.054 757.688H219.346V698.6C191.749 681.665 170.143 656.519 157.556 626.687C144.969 596.855 142.033 563.832 149.158 532.247C156.283 500.662 173.113 472.098 197.289 450.559C221.465 429.02 251.774 415.586 283.969 412.14L298.535 410.635L304.895 397.331C323.093 358.859 351.904 326.387 387.937 303.738C423.97 281.09 465.723 269.208 508.282 269.493C558.995 269.839 608.136 287.131 647.892 318.617C687.648 350.103 715.736 393.977 727.691 443.262L732.546 463.217L753.084 463.557C786.711 464.266 818.73 478.085 842.313 502.067C865.896 526.049 879.176 558.296 879.32 591.93C879.32 641.017 851.014 681.072 802.996 701.416V757.494L806.443 756.329C883.884 731.033 932 668.012 932 591.93C931.792 547.932 915.654 505.498 886.573 472.48C857.492 439.463 817.435 418.096 773.816 412.334Z" fill="white"/>
<path d="M406.322 750.892L417.877 762.447C418.212 762.766 418.442 763.18 418.537 763.632C418.631 764.085 418.586 764.556 418.407 764.982C418.228 765.409 417.924 765.771 417.534 766.02C417.145 766.27 416.689 766.395 416.226 766.38H325.142C319.699 766.386 314.308 765.32 309.278 763.241C304.247 761.163 299.676 758.113 295.825 754.267C291.974 750.42 288.919 745.853 286.835 740.825C284.751 735.797 283.678 730.407 283.678 724.965V547.651C283.678 547.045 283.437 546.465 283.009 546.037C282.582 545.609 282.001 545.369 281.396 545.369H261.635C261.183 545.361 260.743 545.221 260.369 544.968C259.995 544.714 259.702 544.357 259.527 543.941C259.352 543.524 259.302 543.065 259.384 542.62C259.465 542.176 259.673 541.764 259.984 541.436L337.328 464.14C337.537 463.918 337.789 463.742 338.069 463.621C338.349 463.5 338.65 463.438 338.955 463.438C339.26 463.438 339.561 463.5 339.841 463.621C340.121 463.742 340.373 463.918 340.581 464.14L417.877 541.436C418.212 541.755 418.442 542.168 418.537 542.621C418.631 543.074 418.586 543.545 418.407 543.971C418.228 544.398 417.924 544.76 417.534 545.009C417.145 545.259 416.689 545.384 416.226 545.369H396.465C395.86 545.369 395.28 545.609 394.852 546.037C394.424 546.465 394.183 547.045 394.183 547.651V721.76C394.226 732.692 398.589 743.164 406.322 750.892ZM577.226 750.892L588.782 762.447C589.117 762.766 589.347 763.18 589.441 763.632C589.536 764.085 589.491 764.556 589.312 764.982C589.133 765.409 588.828 765.771 588.439 766.02C588.05 766.27 587.593 766.395 587.131 766.38H495.852C490.41 766.386 485.019 765.32 479.989 763.241C474.958 761.163 470.387 758.113 466.536 754.267C462.685 750.42 459.63 745.853 457.546 740.825C455.461 735.797 454.389 730.407 454.389 724.965V592.222C454.395 591.918 454.341 591.616 454.229 591.334C454.117 591.051 453.95 590.794 453.738 590.577C453.525 590.36 453.271 590.187 452.991 590.07C452.711 589.952 452.41 589.891 452.107 589.891H432.734C432.282 589.883 431.842 589.744 431.468 589.491C431.094 589.237 430.801 588.88 430.626 588.463C430.452 588.046 430.402 587.588 430.483 587.143C430.564 586.698 430.772 586.287 431.083 585.959L508.233 508.663C508.442 508.441 508.694 508.264 508.974 508.143C509.254 508.023 509.555 507.96 509.86 507.96C510.165 507.96 510.466 508.023 510.746 508.143C511.025 508.264 511.277 508.441 511.486 508.663L588.782 585.813C589.117 586.132 589.347 586.545 589.441 586.998C589.536 587.451 589.491 587.922 589.312 588.348C589.133 588.775 588.828 589.137 588.439 589.386C588.05 589.636 587.593 589.761 587.131 589.746H567.37C567.066 589.746 566.766 589.806 566.486 589.924C566.206 590.042 565.952 590.214 565.739 590.431C565.527 590.648 565.36 590.906 565.248 591.188C565.136 591.471 565.082 591.773 565.088 592.076V721.76C565.131 732.692 569.494 743.164 577.226 750.892ZM748.326 750.892L759.881 762.447C760.213 762.763 760.441 763.172 760.537 763.62C760.633 764.068 760.592 764.535 760.419 764.959C760.246 765.383 759.95 765.746 759.568 765.999C759.186 766.253 758.737 766.385 758.279 766.38H666.952C655.963 766.38 645.424 762.018 637.649 754.253C629.875 746.487 625.5 735.953 625.488 724.965V636.745C625.488 636.139 625.247 635.559 624.819 635.131C624.391 634.703 623.811 634.463 623.206 634.463H603.445C602.987 634.468 602.537 634.335 602.156 634.082C601.774 633.829 601.477 633.466 601.305 633.042C601.132 632.618 601.091 632.151 601.187 631.703C601.283 631.255 601.511 630.846 601.843 630.53L679.138 553.186C679.573 552.762 680.157 552.524 680.765 552.524C681.372 552.524 681.956 552.762 682.391 553.186L759.687 630.53C759.988 630.854 760.189 631.259 760.264 631.695C760.34 632.131 760.287 632.579 760.112 632.986C759.937 633.392 759.647 633.739 759.279 633.984C758.91 634.229 758.479 634.362 758.036 634.366H738.227C737.621 634.366 737.041 634.606 736.613 635.034C736.185 635.462 735.945 636.042 735.945 636.648V721.76C736.052 732.727 740.504 743.203 748.326 750.892Z" fill="white"/>
</svg>
